<?xml version="1.0" encoding="UTF-8"?>
<svg viewBox="0 0 744.09447 1052.362179" xmlns="http://www.w3.org/2000/svg">
 <path d="m80.628 871.4c-7.9662-4.3446-8.8374-9.5268-8.2488-49.077l0.54201-36.428 4.9281-4.2356c4.4557-3.8296 6.5176-4.2355 21.516-4.2355h16.588v-31.176c0-27.807 0.3736-31.745 3.3982-36.445 1.8655-2.898 18.433-21.077 36.817-40.397l33.425-35.128 0.0441-124.7 0.0441-124.7-41.338-31.436c-22.736-17.29-42.093-32.848-43.017-34.573-0.97641-1.8241-1.6787-28.951-1.6787-64.813 0-67.467 0.28633-69.55 10.12-73.623 3.5882-1.4863 20.354-1.9319 58.875-1.5646 66.692 0.6363 61.58-1.8548 62.437 30.416l0.58222 21.911h59.43v-18.498c0-21.477 2.3399-29.041 9.9597-32.197 3.7681-1.5609 22.388-1.9891 70.425-1.62 79.964 0.61411 73.014-2.2453 73.882 30.404l0.58221 21.911h59.431v-19.407c0-21.801 1.9977-27.99 10.12-31.355 3.5882-1.4863 20.354-1.9319 58.875-1.5646 53.373 0.50902 53.894 0.54912 57.856 4.5122 3.9948 3.9954 3.9988 4.0544 4.5006 68.272 0.41502 53.113 0.0686 64.922-1.9837 68.013-1.3681 2.057-20.753 17.571-43.079 34.477l-40.593 30.737v249.41l35.32 37.729c19.426 20.751 36.021 39.574 36.878 41.828s1.5586 17.41 1.5586 33.679v29.58l17.519 0.60307c26.562 0.91564 25.513-1.0609 25.513 48.026 0 38.681-0.0686 39.496-4.0005 43.421l-4.0005 4.0007-289.32 0.37917c-247.54 0.32255-289.98 0-293.9-2.1246l-0.0098-8.8e-4z"/>
</svg>
